<svg xmlns="http://www.w3.org/2000/svg" xmlns:xlink="http://www.w3.org/1999/xlink" version="1.1" x="0px" y="0px" viewBox="0 0 100 125" enable-background="new 0 0 100 100" xml:space="preserve"><g><polygon points="8.669,48.706 5,62.65 6.565,64.773 10.008,54.727  "/><polygon points="93.422,64.79 95,62.65 91.331,48.706 89.991,54.727  "/><polygon points="41.311,14.947 39.661,15.937 37.462,30.863 37.071,40.502 39.622,40.182 41.47,14.947  "/><polygon points="62.928,40.51 62.538,30.863 60.338,15.937 58.689,14.947 58.529,14.947 60.378,40.188  "/><polygon points="29.01,42.523 21.586,43.458 9.53,47.966 11.045,54.785 5.5,70.967 5.5,88.654 27.14,88.654  "/><polygon points="36.48,55.079 35.119,88.654 64.879,88.654 63.519,55.079  "/><polygon points="52.475,40.195 47.463,40.199 37.03,41.513 36.716,49.244 63.282,49.244 62.969,41.516  "/><polygon points="88.954,54.785 90.47,47.966 78.413,43.458 70.989,42.524 72.859,88.654 94.5,88.654 94.5,70.967  "/><path d="M28.12,89.154h5.978l1.422-35.075h28.96L65.9,89.154h5.979l-2.368-58.421L65.62,15.752l-7.219-4.906h-7.104h-2.595h-7.105   l-7.218,4.906l-3.891,14.981L28.12,89.154z M51.578,13.947h7.388l2.256,1.354l2.312,15.433l0.79,19.511H35.675l0.792-19.511   l2.311-15.433l2.257-1.354h7.386H51.578z"/></g></svg>
